<?xml version="1.0" encoding="UTF-8"?>
<svg width="70px" height="70px" viewBox="0 0 70 70" version="1.1" xmlns="http://www.w3.org/2000/svg" xmlns:xlink="http://www.w3.org/1999/xlink">
    <title>Group</title>
    <g id="Page-1" stroke="none" stroke-width="1" fill="none" fill-rule="evenodd">
        <g id="icon_edit" transform="translate(-15.000000, 0.000000)" fill="#FFFFFF" fill-rule="nonzero">
            <g id="Group" transform="translate(15.000000, 0.000000)">
                <path d="M40.3,10.6 L7.5,43.4 C7.4,43.5 7.3,43.7 7.2,43.8 C7.2,43.8 7.2,43.9 7.1,43.9 C7,44 7,44.2 6.9,44.3 C6.9,44.3 6.9,44.4 6.9,44.4 L0.5,66.3 C0.2,67.2 0.5,68.1 1.1,68.8 C1.6,69.3 2.2,69.5 2.9,69.5 C3.1,69.5 3.4,69.5 3.6,69.4 L25.5,63 C25.5,63 25.6,63 25.6,63 C25.7,63 25.9,62.9 26,62.8 C26,62.8 26.1,62.8 26.1,62.7 C26.3,62.6 26.4,62.5 26.5,62.4 L59.3,29.6 L40.3,10.6 Z M20.1,59.5 L6.6,63.4 L10.5,49.9 L20.1,59.5 Z" id="Shape"></path>
                <path d="M47.1,3.8 L43.8,7.1 L62.9,26.2 L66.2,22.9 C70.9,18.2 70.6,9.6 65.5,4.5 C60.4,-0.6 51.8,-0.9 47.1,3.8 Z" id="Path"></path>
            </g>
        </g>
    </g>
</svg>
